<svg width="321" height="53" viewBox="0 0 321 53" fill="none" xmlns="http://www.w3.org/2000/svg">
<path d="M132.872 21.512C132.872 22.664 132.584 23.688 132.008 24.584C131.464 25.48 130.68 26.248 129.656 26.888C128.664 27.496 127.448 27.96 126.008 28.28C124.6 28.6 123.032 28.76 121.304 28.76C119.576 28.76 118.008 28.6 116.6 28.28C115.192 27.96 113.976 27.496 112.952 26.888C111.928 26.248 111.128 25.48 110.552 24.584C110.008 23.688 109.736 22.664 109.736 21.512V20.504C109.736 19.352 110.008 18.328 110.552 17.432C111.128 16.536 111.912 15.784 112.904 15.176C113.928 14.536 115.144 14.056 116.552 13.736C117.992 13.416 119.576 13.256 121.304 13.256C123.032 13.256 124.6 13.416 126.008 13.736C127.416 14.056 128.632 14.536 129.656 15.176C130.68 15.784 131.464 16.536 132.008 17.432C132.584 18.328 132.872 19.352 132.872 20.504V21.512ZM137.672 30.632C137 30.632 136.664 30.312 136.664 29.672V3.8C136.664 3.128 137 2.792 137.672 2.792H144.536C145.208 2.792 145.544 3.128 145.544 3.8V12.968H147.8C148.44 12.968 148.76 13.304 148.76 13.976V19.592C148.76 20.232 148.44 20.552 147.8 20.552H145.544V29.672C145.544 30.312 145.208 30.632 144.536 30.632H137.672ZM145.016 35.048C145.656 35.048 145.976 35.368 145.976 36.008V40.52C145.976 41.16 145.656 41.48 145.016 41.48H111.608C110.968 41.48 110.648 41.16 110.648 40.52V32.072C110.648 31.432 110.968 31.112 111.608 31.112H118.856C119.496 31.112 119.816 31.432 119.816 32.072V35.048H145.016ZM108.776 6.296C108.776 5.656 109.112 5.336 109.784 5.336H116.984V1.88C116.984 1.208 117.32 0.871999 117.992 0.871999H124.616C125.288 0.871999 125.624 1.208 125.624 1.88V5.336H132.536C133.208 5.336 133.544 5.656 133.544 6.296V10.808C133.544 11.448 133.208 11.768 132.536 11.768H109.784C109.112 11.768 108.776 11.448 108.776 10.808V6.296ZM124.424 20.984C124.424 20.248 124.184 19.64 123.704 19.16C123.256 18.68 122.456 18.44 121.304 18.44C120.12 18.44 119.304 18.696 118.856 19.208C118.408 19.688 118.184 20.296 118.184 21.032C118.184 21.768 118.408 22.376 118.856 22.856C119.336 23.336 120.152 23.576 121.304 23.576C122.488 23.576 123.304 23.336 123.752 22.856C124.2 22.344 124.424 21.72 124.424 20.984ZM153.407 35.576C152.735 35.576 152.399 35.272 152.399 34.664V29.816C152.399 29.208 152.735 28.904 153.407 28.904H165.935V24.968H152.639C151.967 24.968 151.631 24.632 151.631 23.96V18.824C151.631 18.184 151.967 17.864 152.639 17.864H177.983C178.271 16.68 178.463 15.496 178.559 14.312C178.687 13.096 178.767 11.8 178.799 10.424H153.503C152.863 10.424 152.543 10.104 152.543 9.464V4.28C152.543 3.64 152.863 3.32 153.503 3.32H187.295C187.967 3.32 188.303 3.64 188.303 4.28L188.207 8.984C188.111 12.248 187.727 15.208 187.055 17.864H188.495C189.167 17.864 189.503 18.184 189.503 18.824V23.96C189.503 24.632 189.167 24.968 188.495 24.968H175.247V28.904H187.871C188.511 28.904 188.831 29.208 188.831 29.816V41C188.831 41.64 188.511 41.96 187.871 41.96H180.479C179.839 41.96 179.519 41.64 179.519 41V35.576H153.407ZM204.23 40.712C204.23 41.384 203.91 41.72 203.27 41.72H195.11C194.47 41.72 194.15 41.384 194.15 40.712V4.952C194.15 4.344 194.47 4.04 195.11 4.04H203.222C203.894 4.04 204.23 4.344 204.23 4.952V40.712ZM226.049 40.808C226.049 41.416 225.713 41.72 225.041 41.72H216.929C216.289 41.72 215.969 41.416 215.969 40.808V15.56C215.969 14.952 216.289 14.648 216.929 14.648H225.041C225.713 14.648 226.049 14.952 226.049 15.56V40.808ZM208.481 13.208C207.873 13.208 207.569 12.888 207.569 12.248V5.048C207.569 4.376 207.873 4.04 208.481 4.04H233.537C234.145 4.04 234.449 4.376 234.449 5.048V12.248C234.449 12.888 234.145 13.208 233.537 13.208H208.481ZM239.999 41.72C239.359 41.72 239.039 41.4 239.039 40.76V27.656C239.039 27.048 239.359 26.744 239.999 26.744H246.911C247.551 26.744 247.871 27.048 247.871 27.656V36.824H265.055V33.8H250.319C249.647 33.8 249.311 33.464 249.311 32.792V30.104C249.311 29.464 249.647 29.144 250.319 29.144H265.055V27.656C265.055 27.048 265.391 26.744 266.063 26.744H272.927C273.599 26.744 273.935 27.048 273.935 27.656V40.76C273.935 41.4 273.599 41.72 272.927 41.72H239.999ZM266.975 24.584C266.303 24.584 265.967 24.264 265.967 23.624V21.608H263.087C262.447 21.608 262.127 21.288 262.127 20.648V16.232C262.127 15.56 262.447 15.224 263.087 15.224H265.967V11.864H263.327C262.687 11.864 262.367 11.544 262.367 10.904V6.488C262.367 5.816 262.687 5.48 263.327 5.48H265.967V3.8C265.967 3.128 266.303 2.792 266.975 2.792H273.839C274.511 2.792 274.847 3.128 274.847 3.8V23.624C274.847 24.264 274.511 24.584 273.839 24.584H266.975ZM260.303 18.728C260.303 19.816 260.015 20.76 259.439 21.56C258.895 22.328 258.127 22.968 257.135 23.48C256.175 23.96 255.007 24.328 253.631 24.584C252.287 24.808 250.815 24.92 249.215 24.92C247.615 24.92 246.127 24.808 244.751 24.584C243.407 24.328 242.239 23.96 241.247 23.48C240.287 22.968 239.519 22.328 238.943 21.56C238.399 20.76 238.127 19.816 238.127 18.728V18.392C238.127 17.304 238.399 16.376 238.943 15.608C239.487 14.808 240.255 14.168 241.247 13.688C242.239 13.176 243.407 12.808 244.751 12.584C246.127 12.328 247.615 12.2 249.215 12.2C250.815 12.2 252.287 12.328 253.631 12.584C255.007 12.808 256.175 13.176 257.135 13.688C258.127 14.168 258.895 14.808 259.439 15.608C260.015 16.376 260.303 17.304 260.303 18.392V18.728ZM237.167 5.816C237.167 5.176 237.503 4.856 238.175 4.856H244.895V1.88C244.895 1.208 245.231 0.871999 245.903 0.871999H252.527C253.199 0.871999 253.535 1.208 253.535 1.88V4.856H259.967C260.671 4.856 261.023 5.176 261.023 5.816V9.848C261.023 10.488 260.671 10.808 259.967 10.808H238.175C237.503 10.808 237.167 10.488 237.167 9.848V5.816ZM251.807 18.536C251.807 17.992 251.631 17.512 251.279 17.096C250.927 16.648 250.239 16.424 249.215 16.424C248.159 16.424 247.455 16.648 247.103 17.096C246.751 17.544 246.575 18.04 246.575 18.584C246.575 19.128 246.751 19.624 247.103 20.072C247.487 20.488 248.191 20.696 249.215 20.696C250.271 20.696 250.959 20.472 251.279 20.024C251.631 19.576 251.807 19.08 251.807 18.536ZM280.55 40.856C279.878 40.856 279.542 40.504 279.542 39.8V34.952C279.542 34.312 279.878 33.992 280.55 33.992H288.758V30.44C286.422 30.024 284.534 29.192 283.094 27.944C281.686 26.696 280.982 24.92 280.982 22.616V22.088C280.982 20.744 281.27 19.576 281.846 18.584C282.454 17.56 283.286 16.712 284.342 16.04C285.398 15.368 286.646 14.856 288.086 14.504C289.526 14.152 291.094 13.976 292.79 13.976C294.454 13.976 296.006 14.152 297.446 14.504C298.886 14.856 300.134 15.368 301.19 16.04C302.246 16.712 303.078 17.56 303.686 18.584C304.294 19.576 304.598 20.744 304.598 22.088V22.616C304.598 24.92 303.878 26.696 302.438 27.944C301.03 29.16 299.174 29.976 296.87 30.392V33.992C298.982 33.96 301.014 33.848 302.966 33.656C304.95 33.432 306.742 33.032 308.342 32.456V3.8C308.342 3.128 308.678 2.792 309.35 2.792H316.214C316.886 2.792 317.222 3.128 317.222 3.8V41C317.222 41.64 316.886 41.96 316.214 41.96H309.35C308.678 41.96 308.342 41.64 308.342 41V38.504C306.678 39.24 304.646 39.816 302.246 40.232C299.846 40.648 297.238 40.856 294.422 40.856H280.55ZM280.022 6.056C280.022 5.416 280.358 5.096 281.03 5.096H288.71V2.456C288.71 1.784 289.046 1.448 289.718 1.448H296.342C297.014 1.448 297.35 1.784 297.35 2.456V5.096H304.262C304.934 5.096 305.27 5.416 305.27 6.056V10.76C305.27 11.464 304.934 11.816 304.262 11.816H281.03C280.358 11.816 280.022 11.464 280.022 10.76V6.056ZM292.79 25.64C293.814 25.64 294.63 25.352 295.238 24.776C295.846 24.2 296.15 23.4 296.15 22.376C296.15 21.352 295.846 20.552 295.238 19.976C294.662 19.368 293.846 19.064 292.79 19.064C291.734 19.064 290.902 19.368 290.294 19.976C289.718 20.552 289.43 21.352 289.43 22.376C289.43 23.4 289.734 24.2 290.342 24.776C290.95 25.352 291.766 25.64 292.79 25.64Z" fill="white"/>
<path d="M49.2677 40.772C49.2677 41.304 49.0144 41.57 48.5077 41.57H42.0477C41.541 41.57 41.2877 41.304 41.2877 40.772V12.462C41.2877 11.9807 41.541 11.74 42.0477 11.74H48.4697C49.0017 11.74 49.2677 11.9807 49.2677 12.462V40.772ZM66.5414 40.848C66.5414 41.3293 66.2754 41.57 65.7434 41.57H59.3214C58.8147 41.57 58.5614 41.3293 58.5614 40.848V20.86C58.5614 20.3787 58.8147 20.138 59.3214 20.138H65.7434C66.2754 20.138 66.5414 20.3787 66.5414 20.86V40.848ZM52.6334 18.998C52.152 18.998 51.9114 18.7447 51.9114 18.238V12.538C51.9114 12.006 52.152 11.74 52.6334 11.74H72.4694C72.9507 11.74 73.1914 12.006 73.1914 12.538V18.238C73.1914 18.7447 72.9507 18.998 72.4694 18.998H52.6334ZM78.3401 40.962C78.1881 41.3673 77.8714 41.57 77.3901 41.57H70.8541C70.5501 41.57 70.3347 41.4813 70.2081 41.304C70.1067 41.152 70.1194 40.9367 70.2461 40.658L79.2141 12.348C79.3661 11.9427 79.6701 11.74 80.1261 11.74H85.4841C86.0667 11.74 86.2821 12.044 86.1301 12.652L78.3401 40.962ZM89.3601 41.57C88.8787 41.57 88.5874 41.3673 88.4861 40.962L87.5361 37.276H81.4561C81.1521 37.276 80.9367 37.2 80.8101 37.048C80.6834 36.8707 80.6707 36.6427 80.7721 36.364L82.1781 31.234C82.3301 30.7527 82.6214 30.512 83.0521 30.512H85.7881L84.2681 24.622C84.1667 24.318 84.1794 23.9633 84.3061 23.558L87.0421 13.64C87.1434 13.2853 87.3081 13.108 87.5361 13.108C87.7641 13.108 87.9414 13.2853 88.0681 13.64L96.7321 40.696C96.9854 41.2787 96.7954 41.57 96.1621 41.57H89.3601Z" fill="white"/>
<path d="M16.1682 40.432C16.1682 41.0996 15.8344 41.4334 15.1668 41.4334H7.3463C6.71049 41.4334 6.39258 41.0996 6.39258 40.432V4.90603C6.39258 4.30201 6.71049 4 7.3463 4H15.1668C15.8344 4 16.1682 4.30201 16.1682 4.90603V17.4474L23.1339 13.2987L25.5182 11.5105L26.7104 10.9144L27.9025 9.7223L26.1143 10.9144C26.1143 10.9144 26.5319 10.1813 26.6591 10.4038C16.1691 16.9844 25.0705 11.5003 24.8479 11.85L16.1682 22.2398V40.432ZM26.6591 41.4334C26.0551 41.4334 25.6895 41.1791 25.5623 40.6705L20.4122 30.8949C20.3169 30.7041 20.2533 30.4975 20.2215 30.2749C20.2215 30.0206 20.301 29.7822 20.4599 29.5597L25.1808 22.5975C25.6259 21.8981 26.0551 21.8981 26.4683 22.5975L36.8639 40.3367C37.1818 41.0679 36.9433 41.4334 36.1486 41.4334H26.6591Z" fill="white"/>
<path d="M16.0059 17.1151L1.06101 11.1973L16.1317 29.1876L33.9982 5.00003L16.0059 17.1151Z" fill="white" stroke="#283EAE"/>
</svg>
